# xmcd CD database file
#
# Track frame offsets:
#	150
#	19045
#	45942
#	68730
#	91307
#	113450
#	136820
#	154443
#	169136
#	188669
#	213767
#	228982
#	245891
#	271585
#	289430
#
# Disc length: 4117 seconds
#
# Revision: 0
# Processed by: cddbd v1.5.2PL0 Copyright (c) Steve Scherf et al.
# Submitted via: CDex 1.70beta2
#
DISCID=c610130f
DTITLE=Katja Lange-Mueller - Boese Schafe
DYEAR=2007
DGENRE=Hoerbuch
TTITLE0=Kapitel IX-1
TTITLE1=Kapitel IX-2
TTITLE2=Kapitel IX-3
TTITLE3=Kapitel IX-4
TTITLE4=Kapitel IX-5
TTITLE5=Kapitel IX-6
TTITLE6=Kapitel X-1
TTITLE7=Kapitel X-2
TTITLE8=Kapitel X-3
TTITLE9=Kapitel X-4
TTITLE10=Kapitel X-5
TTITLE11=Kapitel X-6
TTITLE12=Kapitel XI-1
TTITLE13=Kapitel XI-2
TTITLE14=Kapitel XI-3
EXTD=YEAR: 2007
EXTT0=
EXTT1=
EXTT2=
EXTT3=
EXTT4=
EXTT5=
EXTT6=
EXTT7=
EXTT8=
EXTT9=
EXTT10=
EXTT11=
EXTT12=
EXTT13=
EXTT14=
PLAYORDER=
